<svg width="800" height="260" viewBox="0 0 800 260" xmlns="http://www.w3.org/2000/svg">
  <style>
    .bg   { fill: #0d1117; }
    .grid { stroke: #161b22; stroke-width: 1; }
    .top  { fill: #2ea043; }
    .brk  { stroke: #2ea043; stroke-width: 2; fill: none; }
    .logo { font-family: ui-monospace, SFMono-Regular, Menlo, Consolas, monospace; font-size: 12.4px; font-weight: 700; fill: #2ea043; }
    .logo2{ font-family: ui-monospace, SFMono-Regular, Menlo, Consolas, monospace; font-size: 12.4px; font-weight: 700; fill: #1a5c34; }
    .tag  { font-family: ui-monospace, SFMono-Regular, Menlo, Consolas, monospace; font-size: 13px; fill: #484f58; }
    .bot  { fill: #2ea043; opacity: 0.25; }
  </style>
  <rect width="800" height="260" class="bg"/>

  <!-- grid -->
  <g class="grid">
    <line x1="0" y1="36" x2="800" y2="36"/>
    <line x1="0" y1="72" x2="800" y2="72"/>
    <line x1="0" y1="108" x2="800" y2="108"/>
    <line x1="0" y1="144" x2="800" y2="144"/>
    <line x1="0" y1="180" x2="800" y2="180"/>
    <line x1="0" y1="216" x2="800" y2="216"/>
    <line x1="100" y1="0" x2="100" y2="260"/>
    <line x1="200" y1="0" x2="200" y2="260"/>
    <line x1="300" y1="0" x2="300" y2="260"/>
    <line x1="400" y1="0" x2="400" y2="260"/>
    <line x1="500" y1="0" x2="500" y2="260"/>
    <line x1="600" y1="0" x2="600" y2="260"/>
    <line x1="700" y1="0" x2="700" y2="260"/>
  </g>

  <!-- top bar -->
  <rect x="0" y="0" width="800" height="3" class="top"/>

  <!-- corner brackets -->
  <polyline points="22,22 22,46 46,46" class="brk"/>
  <polyline points="778,22 778,46 754,46" class="brk"/>
  <polyline points="22,238 22,214 46,214" class="brk"/>
  <polyline points="778,238 778,214 754,214" class="brk"/>

  <!-- ASCII LOGO — 6 lines centered -->
  <text x="400" y="84"  class="logo"  text-anchor="middle">███████╗ █████╗ ███████╗██╗   ██╗██████╗ ███████╗ ██████╗ ██████╗ ███╗   ██╗</text>
  <text x="400" y="100" class="logo"  text-anchor="middle">██╔════╝██╔══██╗██╔════╝╚██╗ ██╔╝██╔══██╗██╔════╝██╔════╝██╔═══██╗████╗  ██║</text>
  <text x="400" y="116" class="logo"  text-anchor="middle">█████╗  ███████║███████╗ ╚████╔╝ ██████╔╝█████╗  ██║     ██║   ██║██╔██╗ ██║</text>
  <text x="400" y="132" class="logo"  text-anchor="middle">██╔══╝  ██╔══██║╚════██║  ╚██╔╝  ██╔══██╗██╔══╝  ██║     ██║   ██║██║╚██╗██║</text>
  <text x="400" y="148" class="logo"  text-anchor="middle">███████╗██║  ██║███████║   ██║   ██║  ██║███████╗╚██████╗╚██████╔╝██║ ╚████║</text>
  <text x="400" y="164" class="logo2" text-anchor="middle">╚══════╝╚═╝  ╚═╝╚══════╝   ╚═╝   ╚═╝  ╚═╝╚══════╝ ╚═════╝ ╚═════╝ ╚═╝  ╚═══╝</text>

  <!-- tagline -->
  <text x="400" y="202" class="tag" text-anchor="middle">automated recon pipeline  ·  6 phases  ·  7 tools  ·  12 attack categories</text>

  <!-- bottom bar -->
  <rect x="0" y="257" width="800" height="3" class="bot"/>
</svg>
